<svg width="1035" height="1035" viewBox="0 0 1035 1035" fill="none" xmlns="http://www.w3.org/2000/svg">
<path d="M908.383 923C904.648 923 900.912 921.57 898.067 918.725L763.949 784.606C758.244 778.901 758.244 769.68 763.949 763.975C769.654 758.27 778.875 758.27 784.58 763.975L918.699 898.094C924.404 903.799 924.404 913.02 918.699 918.725C915.839 921.57 912.104 923 908.383 923Z" fill="#C7CAC7"/>
<path d="M825.829 722.712L722.686 825.854C711.276 837.264 692.79 837.264 681.394 825.854L330.632 475.092C319.222 463.682 319.222 445.195 330.632 433.8L433.774 330.658C445.184 319.248 463.671 319.248 475.066 330.658L825.829 681.42C837.224 692.816 837.224 711.302 825.829 722.712Z" fill="#DFF2F8"/>
<path d="M413.144 351.286L351.241 413.188L485.364 547.311L547.267 485.409L413.144 351.286Z" fill="#7383BF"/>
<path d="M825.829 681.42L590.334 445.925L445.899 590.359L681.38 825.84C692.79 837.25 711.277 837.25 722.672 825.84L825.814 722.698C837.224 711.302 837.224 692.816 825.829 681.42Z" fill="#D1EDB9"/>
<path d="M387.361 273.899C405.279 255.982 415.142 232.17 415.142 206.84C415.142 181.511 405.264 157.684 387.361 139.781C369.444 121.863 345.631 112 320.287 112C294.943 112 271.145 121.863 253.228 139.781C235.325 157.684 225.447 181.496 225.447 206.84C225.447 214.033 226.323 221.066 227.869 227.924C221.041 226.363 213.993 225.487 206.8 225.487C181.47 225.487 157.658 235.351 139.741 253.268C102.753 290.241 102.753 350.414 139.741 387.387C157.658 405.304 181.456 415.167 206.8 415.167C232.144 415.167 255.956 405.304 273.859 387.387C282.993 378.253 289.865 367.689 294.476 356.425L351.234 413.183L413.143 351.274L356.429 294.56C367.868 289.862 378.359 282.902 387.361 273.899ZM254.629 206.84C254.629 189.302 261.457 172.814 273.859 160.412C286.261 148.01 302.749 141.182 320.287 141.182C337.825 141.182 354.313 148.01 366.715 160.412C379.117 172.814 385.946 189.302 385.946 206.84C385.946 224.378 379.117 240.866 366.715 253.268C354.313 265.67 337.84 272.499 320.287 272.499C302.734 272.499 286.261 265.67 273.859 253.268C261.457 240.866 254.629 224.378 254.629 206.84ZM253.228 366.755C240.826 379.157 224.338 385.986 206.8 385.986C189.262 385.986 172.774 379.157 160.372 366.755C134.78 341.148 134.78 299.506 160.372 273.899C172.774 261.497 189.262 254.669 206.8 254.669C224.338 254.669 240.826 261.497 253.228 273.899C278.835 299.506 278.835 341.148 253.228 366.755Z" fill="#7FABDA"/>
<path d="M588.539 682.675C600.626 682.675 610.425 672.876 610.425 660.789C610.425 648.702 600.626 638.903 588.539 638.903C576.451 638.903 566.652 648.702 566.652 660.789C566.652 672.876 576.451 682.675 588.539 682.675Z" fill="#60BB42"/>
<path d="M660.763 754.899C672.851 754.899 682.649 745.101 682.649 733.013C682.649 720.926 672.851 711.127 660.763 711.127C648.676 711.127 638.877 720.926 638.877 733.013C638.877 745.101 648.676 754.899 660.763 754.899Z" fill="#60BB42"/>
<path d="M640.132 589.819C652.22 589.819 662.018 580.02 662.018 567.933C662.018 555.846 652.22 546.047 640.132 546.047C628.045 546.047 618.246 555.846 618.246 567.933C618.246 580.02 628.045 589.819 640.132 589.819Z" fill="#60BB42"/>
<path d="M681.394 672.359C693.481 672.359 703.28 662.561 703.28 650.473C703.28 638.386 693.481 628.587 681.394 628.587C669.307 628.587 659.508 638.386 659.508 650.473C659.508 662.561 669.307 672.359 681.394 672.359Z" fill="#60BB42"/>
<path d="M753.619 723.953C765.706 723.953 775.505 714.154 775.505 702.066C775.505 689.979 765.706 680.18 753.619 680.18C741.531 680.18 731.732 689.979 731.732 702.066C731.732 714.154 741.531 723.953 753.619 723.953Z" fill="#60BB42"/>
<path d="M268.709 510.314C264.973 510.314 261.238 508.884 258.393 506.039C252.688 500.334 252.688 491.113 258.393 485.408L485.367 258.419C491.072 252.714 500.294 252.714 505.999 258.419C511.704 264.124 511.704 273.345 505.999 279.05L279.024 506.039C276.179 508.884 272.444 510.314 268.709 510.314Z" fill="#A1C8EC"/>
<path d="M452.247 596.719L596.688 452.279L576.053 431.645L431.613 576.085L452.247 596.719Z" fill="#556080"/>
</svg>
